<?xml version="1.0" standalone="no"?>
<!DOCTYPE svg PUBLIC "-//W3C//DTD SVG 20010904//EN"
 "http://www.w3.org/TR/2001/REC-SVG-20010904/DTD/svg10.dtd">
<svg version="1.0" xmlns="http://www.w3.org/2000/svg"
 width="381.000000pt" height="353.000000pt" viewBox="0 0 381.000000 353.000000"
 preserveAspectRatio="xMidYMid meet">

<g transform="translate(0.000000,353.000000) scale(0.100000,-0.100000)"
fill="#000000" stroke="none">
<path d="M1652 3379 c-77 -30 -218 -171 -308 -305 -165 -248 -280 -657 -324
-1154 -12 -138 -30 -625 -24 -662 3 -17 -7 -32 -39 -58 -122 -99 -157 -188
-166 -430 -3 -91 -4 -184 -3 -206 4 -39 6 -42 39 -47 41 -7 2096 3 2103 10 3
3 5 100 4 216 -1 290 -27 380 -139 492 l-51 50 -12 300 c-19 473 -49 764 -108
1058 -46 230 -73 287 -194 400 -174 164 -385 274 -630 328 -95 21 -115 22
-148 8z m161 -395 c111 -57 455 -289 444 -300 -2 -3 -27 0 -54 6 -28 6 -77 10
-109 8 -58 -3 -59 -3 -59 -33 0 -30 0 -30 70 -37 132 -13 205 -29 214 -46 12
-23 36 -134 61 -279 l20 -122 -24 -53 c-39 -84 -89 -157 -153 -222 l-60 -61
19 -145 c30 -233 31 -234 55 -244 l21 -10 -30 -60 c-41 -83 -96 -173 -132
-219 -44 -55 -135 -127 -161 -127 -32 0 -136 81 -190 148 -39 48 -135 223
-135 245 0 4 11 7 24 7 28 0 27 -7 56 238 l18 147 -27 23 c-14 13 -47 41 -74
63 -60 51 -115 125 -154 211 l-32 67 -48 -5 c-42 -5 -54 -2 -95 26 -141 94
-122 320 26 320 50 0 61 -7 78 -45 12 -28 13 -23 16 67 l3 96 107 109 c59 59
130 137 157 173 71 94 69 93 148 54z"/>
<path d="M1627 2689 c-21 -5 -50 -15 -66 -24 -30 -15 -85 -74 -77 -82 2 -2 28
3 58 12 29 8 92 20 140 25 49 5 92 12 98 15 16 10 12 52 -6 59 -22 8 -102 6
-147 -5z"/>
<path d="M1595 2521 c-43 -19 -72 -47 -61 -58 4 -4 16 -2 26 5 26 16 30 15 30
-6 0 -28 35 -55 60 -47 41 13 45 93 7 117 -16 10 -16 10 -62 -11z"/>
<path d="M2117 2513 c-23 -27 -22 -79 2 -93 27 -14 49 -3 67 32 11 22 20 28
32 23 59 -25 71 -10 22 25 -44 31 -100 37 -123 13z"/>
</g>
</svg>
